<?xml version="1.0" encoding="utf-8"?>
<!-- Generator: Adobe Illustrator 28.2.0, SVG Export Plug-In . SVG Version: 6.00 Build 0)  -->
<svg version="1.1"
	 id="svg2" xmlns:inkscape="http://www.inkscape.org/namespaces/inkscape" xmlns:sodipodi="http://sodipodi.sourceforge.net/DTD/sodipodi-0.dtd" xmlns:svg="http://www.w3.org/2000/svg" xmlns:rdf="http://www.w3.org/1999/02/22-rdf-syntax-ns#" xmlns:dc="http://purl.org/dc/elements/1.1/" xmlns:cc="http://creativecommons.org/ns#"
	 xmlns="http://www.w3.org/2000/svg" xmlns:xlink="http://www.w3.org/1999/xlink" x="0px" y="0px" viewBox="0 0 250 120"
	 style="enable-background:new 0 0 250 120;" xml:space="preserve">
<g id="g354" transform="matrix(2.7555556,0,0,2.7555556,-98.400002,-98.400002)">
	<path id="path356" inkscape:connector-curvature="0" d="M108.5,69.9c-1-0.4-2-0.9-3-1.5s-1.8-1.4-2.7-2.2c-0.8-0.8-1.6-1.6-2.3-2.5
		c0.7-0.7,1.4-1.5,2.3-2.4c0.8-0.9,1.7-1.7,2.6-2.4c0.9-0.7,1.9-1.3,2.9-1.8c1-0.5,2.1-0.7,3.2-0.7c2.1,0,3.7,0.7,4.9,2.1
		c1.2,1.4,1.8,3.1,1.8,5c0,1.9-0.6,3.6-1.7,4.9c-1.1,1.3-2.7,2-4.8,2C110.6,70.5,109.5,70.3,108.5,69.9 M74.6,68.5
		c-1.2-1.3-1.8-2.9-1.8-4.9c0-1.8,0.6-3.5,1.7-5c1.1-1.5,2.7-2.2,4.6-2.2c1.1,0,2.1,0.2,3.2,0.7c1.1,0.5,2.1,1.1,3,1.8
		c1,0.7,1.9,1.5,2.8,2.4c0.9,0.9,1.7,1.7,2.3,2.4c-0.7,0.8-1.4,1.6-2.3,2.4s-1.7,1.5-2.7,2.2c-0.9,0.6-1.9,1.2-3,1.6
		c-1.1,0.4-2.1,0.6-3.2,0.6C77.4,70.5,75.8,69.8,74.6,68.5 M84.5,78.1c1.5-0.5,2.8-1.2,4.1-2.1c1.2-0.9,2.4-1.9,3.5-3
		c1.1-1.1,2.3-2.3,3.4-3.5c1.1,1.2,2.2,2.4,3.3,3.5c1.2,1.1,2.4,2.1,3.7,3c1.3,0.9,2.7,1.6,4.2,2.1c1.5,0.5,3.1,0.8,4.8,0.8
		c2.2,0,4.2-0.4,6-1.2c1.8-0.8,3.3-1.9,4.5-3.3c1.2-1.4,2.2-3.1,2.8-5c0.7-1.9,1-3.9,1-6.1c0-2.2-0.3-4.2-1-6
		c-0.7-1.8-1.6-3.4-2.8-4.8c-1.2-1.4-2.7-2.4-4.5-3.2c-1.8-0.8-3.8-1.2-6-1.2c-1.8,0-3.4,0.3-5,0.8c-1.5,0.6-3,1.3-4.3,2.2
		c-1.3,0.9-2.5,2-3.7,3.2c-1.1,1.2-2.2,2.5-3.3,3.8c-1.1-1.3-2.2-2.6-3.4-3.8s-2.4-2.3-3.7-3.2c-1.3-0.9-2.7-1.7-4.3-2.2
		c-1.5-0.6-3.2-0.8-5-0.8c-2.2,0-4.2,0.4-6,1.2s-3.3,1.9-4.5,3.3c-1.2,1.4-2.2,3-2.8,4.8c-0.6,1.9-1,3.9-1,6s0.3,4.2,1,6.1
		s1.6,3.5,2.9,4.9c1.3,1.4,2.8,2.5,4.6,3.3c1.8,0.8,3.8,1.2,6.1,1.2C81.4,78.9,83,78.6,84.5,78.1"/>
	<path id="path358" inkscape:connector-curvature="0" d="M47.7,43.1L46,52.6l0.1,0.1c1.2-1.2,2.4-2,3.7-2.5c1.3-0.5,2.8-0.7,4.5-0.7
		c2.1,0,3.9,0.4,5.5,1.1c1.6,0.8,2.9,1.8,4.1,3.1c1.1,1.3,1.9,2.8,2.5,4.5c0.6,1.7,0.9,3.6,0.9,5.6c0,2.2-0.4,4.2-1.3,6
		c-0.8,1.9-2,3.5-3.4,4.8c-1.4,1.4-3.1,2.4-5,3.1c-1.9,0.7-3.9,1.1-6,1.1c-2,0-4-0.3-5.8-0.8c-1.9-0.5-3.5-1.4-5-2.5
		c-1.4-1.1-2.6-2.5-3.5-4.2c-0.9-1.7-1.3-3.6-1.4-5.8h8.5c0.2,1.9,0.9,3.5,2.2,4.6c1.2,1.1,2.8,1.7,4.7,1.7c1.1,0,2.1-0.2,3-0.7
		s1.7-1.1,2.3-1.8c0.6-0.7,1.1-1.6,1.4-2.6c0.3-1,0.5-2,0.5-3c0-1.1-0.2-2.1-0.5-3.1c-0.3-1-0.8-1.8-1.4-2.5
		c-0.6-0.7-1.4-1.3-2.3-1.7c-0.9-0.4-1.9-0.6-3.1-0.6c-1.5,0-2.8,0.3-3.7,0.8c-1,0.5-1.9,1.4-2.7,2.6h-7.7l4.1-23.2H65v7H47.7z"/>
</g>
</svg>
