<?xml version="1.0" encoding="UTF-8"?>
<svg id="a" data-name="Calque_1" xmlns="http://www.w3.org/2000/svg" width="18.676" height="22.64" viewBox="0 0 18.676 22.64">
  <path d="M18.676,14.181c-1.738,1.139-3.989,2.38-6.746,3.384-4.78,1.74-9.052,2.024-11.93,1.97v3.106h18.676v-8.459Z" fill="#fcb81e"/>
  <path d="M15.529,7.111c-1.133,1.331-3.284,3.491-6.641,4.986-2.219.989-4.243,1.364-5.701,1.512v4.087c1.561-.117,3.399-.375,5.415-.899,2.85-.741,5.176-1.786,6.927-2.738v-6.947Z" fill="#fcb81e"/>
  <path d="M12.505,0c-.442,1.082-1.28,2.744-2.84,4.352-1.199,1.236-2.421,2.024-3.331,2.513v4.332c.156-.038.312-.078.47-.123,2.29-.643,4.175-1.85,5.701-3.228V0Z" fill="#fcb81e"/>
</svg>