<?xml version="1.0" encoding="iso-8859-1"?>
<!-- Generator: Adobe Illustrator 29.5.0, SVG Export Plug-In . SVG Version: 9.03 Build 0)  -->
<svg version="1.1" id="Calque_1" xmlns="http://www.w3.org/2000/svg" xmlns:xlink="http://www.w3.org/1999/xlink" x="0px" y="0px"
	 width="1000px" height="1000px" viewBox="0 0 1000 1000" enable-background="new 0 0 1000 1000" xml:space="preserve">
<path fill="#FFFFFF" d="M815.233,199.705c-65.42-65.219-135.068-22.947-178.748,20.532L224.237,632.485
	c-43.681,43.681-89.374,110.107-20.532,178.748c68.641,68.641,134.866,22.947,178.547-20.733L794.5,378.252
	C838.18,334.773,880.452,264.924,815.233,199.705L815.233,199.705z M421.303,182.797l87.361,87.361l88.77-88.971
	c6.039-6.039,12.078-11.675,18.318-16.909c-9.26-46.901-36.031-89.374-107.289-89.374s-98.03,42.674-107.088,89.575
	C408.018,170.317,414.66,176.154,421.303,182.797L421.303,182.797z M597.434,831.161l-88.77-88.77l-87.361,87.16
	c-6.643,6.643-13.084,12.883-19.727,18.519c10.065,47.908,38.246,91.588,106.886,91.588c68.842,0,97.224-44.083,107.088-91.991
	C609.512,842.433,603.473,837.2,597.434,831.161L597.434,831.161z M384.265,394.355H215.984
	c-61.797,0-140.905,19.525-140.905,111.717c0,69.043,44.083,97.224,92.192,107.088C172.907,606.719,384.265,394.355,384.265,394.355
	L384.265,394.355z M850.258,398.985c-5.234,6.039-217.195,219.007-217.195,219.007h165.865c61.797,0,140.905-14.694,140.905-111.919
	C939.833,435.017,897.36,408.245,850.258,398.985z M439.419,339.201l29.993-29.993l-87.16-87.361
	c-43.681-43.681-109.906-89.374-178.748-20.532c-50.323,50.323-39.051,99.439-12.48,139.093
	C199.277,339.805,439.419,339.201,439.419,339.201z M577.707,673.146l-30.194,30.194l88.971,88.77
	c43.681,43.681,113.328,85.952,178.547,20.733c48.713-48.713,37.642-100.043,10.669-140.905
	C817.045,672.542,577.707,673.146,577.707,673.146z"/>
<g>
</g>
<g>
</g>
<g>
</g>
<g>
</g>
<g>
</g>
<g>
</g>
</svg>
