<svg viewBox="0 0 24 24" xml:space="preserve" xmlns="http://www.w3.org/2000/svg"><path d="M12-.1c-6.6 0-12 5.4-12 12V24h2.1L4 22l1.9 2L8 22l2 2 2-2 1.9 2 2.1-2 2 2 2-2 2 2h2V11.9c0-6.6-5.4-12-12-12zm10 20.6L20 19l-2 2-2-2-2 2-2-2-2 2-2-2-2.1 2L4 19l-2 1.5v-8.6c0-5.5 4.5-10 10-10s10 4.5 10 10v8.6z" fill="#ffffff" class="fill-000000"></path><path d="M16 7.9c-1.7 0-3 1.3-3 3s1.3 3 3 3 3-1.3 3-3-1.3-3-3-3zm0 5c-1.1 0-2-.9-2-2s.9-2 2-2 2 .9 2 2-.9 2-2 2zM8 7.9c-1.7 0-3 1.3-3 3s1.3 3 3 3 3-1.3 3-3-1.3-3-3-3zm0 5c-1.1 0-2-.9-2-2s.9-2 2-2 2 .9 2 2-.9 2-2 2z" fill="#ffffff" class="fill-000000"></path></svg>