<svg id="Icons" version="1.1" viewBox="0 0 32 32" xml:space="preserve" xmlns="http://www.w3.org/2000/svg" enable-background="new 0 0 32 32"><path d="M28 18c-.6 0-1-.4-1-1 0-6.1-4.9-11-11-11S5 10.9 5 17c0 .6-.4 1-1 1s-1-.4-1-1C3 9.8 8.8 4 16 4s13 5.8 13 13c0 .6-.4 1-1 1z" fill="#ffffff" class="fill-000000"></path><path d="M5 19H3c-.6 0-1-.4-1-1v-2c0-.6.4-1 1-1h2c.6 0 1 .4 1 1v2c0 .6-.4 1-1 1zM29 19h-2c-.6 0-1-.4-1-1v-2c0-.6.4-1 1-1h2c.6 0 1 .4 1 1v2c0 .6-.4 1-1 1zM17 7h-2c-.6 0-1-.4-1-1V4c0-.6.4-1 1-1h2c.6 0 1 .4 1 1v2c0 .6-.4 1-1 1zM4 7c-1.1 0-2-.9-2-2s.9-2 2-2 2 .9 2 2-.9 2-2 2zm0-2zm0 0zm0 0zm0 0zm0 0zm0 0zm0 0zm0 0zM28 7c-1.1 0-2-.9-2-2s.9-2 2-2 2 .9 2 2-.9 2-2 2zm0-2zm0 0zm0 0zm0 0zm0 0zm0 0zm0 0zm0 0z" fill="#ffffff" class="fill-000000"></path><path d="M28 6H4c-.6 0-1-.4-1-1s.4-1 1-1h24c.6 0 1 .4 1 1s-.4 1-1 1zM12 25h8c.6-2 1.5-3.8 2.8-5.2.3-.3.3-.8.1-1.2L17 9.7v6.5c1.2.4 2 1.5 2 2.8 0 1.7-1.3 3-3 3s-3-1.3-3-3c0-1.3.8-2.4 2-2.8V9.7l-5.8 8.9c-.3.4-.2.9.1 1.2 1.2 1.4 2.1 3.2 2.7 5.2zM12 27v2c0 .6.4 1 1 1h6c.6 0 1-.4 1-1v-2h-8z" fill="#ffffff" class="fill-000000"></path></svg>