<svg 
 xmlns="http://www.w3.org/2000/svg"
 xmlns:xlink="http://www.w3.org/1999/xlink"
 width="220px" height="220px">
<path fill-rule="evenodd"  fill="rgb(255, 255, 255)"
 d="M110.000,219.1000 C49.249,219.1000 -0.000,170.751 -0.000,109.1000 C-0.000,49.249 49.249,0.000 110.000,0.000 C170.751,0.000 220.000,49.249 220.000,109.1000 C220.000,170.751 170.751,219.1000 110.000,219.1000 ZM110.000,9.1000 C92.356,9.1000 64.572,15.009 40.746,37.901 C38.899,39.727 40.036,38.552 38.557,40.057 C20.900,58.091 9.1000,82.767 9.1000,109.1000 C9.1000,165.228 54.772,209.1000 110.000,209.1000 C121.003,209.1000 131.579,208.197 141.480,204.914 C141.662,201.355 141.951,196.399 141.951,195.205 C141.951,191.721 141.541,175.238 141.541,171.755 C141.541,168.374 142.054,155.260 142.054,147.883 C142.054,144.810 141.951,142.761 141.746,142.761 C140.210,142.658 138.468,142.556 136.624,142.556 C131.911,142.556 126.891,142.863 123.510,142.863 C122.383,142.863 121.563,142.863 120.846,142.761 C120.129,141.224 119.924,139.585 119.924,137.741 C119.924,133.438 120.436,131.594 120.436,124.217 C120.436,121.246 120.436,118.582 120.641,117.967 C122.076,117.250 123.612,117.045 125.252,117.045 C130.886,117.045 135.907,117.660 141.132,117.660 C143.693,117.660 146.254,117.353 149.020,117.353 C151.889,117.353 154.655,117.558 157.421,117.558 C159.983,117.558 162.646,117.148 165.310,117.148 C166.335,117.148 167.257,117.148 168.281,117.353 C168.998,117.148 174.531,116.943 178.834,116.943 C181.498,116.943 183.649,117.045 183.854,117.250 C183.956,117.250 183.956,117.148 183.956,117.148 C183.956,117.045 183.649,117.045 183.547,117.045 C183.649,116.840 183.956,116.738 184.366,116.738 C185.493,116.738 187.132,117.250 187.337,117.558 C186.928,118.582 186.723,120.016 186.723,121.451 C186.723,128.315 187.747,132.003 187.747,137.638 C187.747,138.970 187.645,140.302 187.235,141.429 C179.653,142.044 171.867,141.736 165.310,141.941 C165.310,144.912 165.208,147.883 165.208,150.854 C165.208,154.030 165.515,157.411 165.515,160.485 C165.515,167.184 165.023,184.371 164.920,193.557 C192.069,175.676 209.1000,144.939 209.1000,109.1000 C209.1000,54.772 165.228,9.1000 110.000,9.1000 ZM156.705,109.914 C150.557,109.914 144.615,109.196 143.693,109.094 C126.686,105.918 117.466,93.624 117.466,77.231 C117.670,65.757 119.924,53.975 128.018,45.267 C133.550,38.300 148.201,35.943 153.016,35.943 C156.807,35.943 161.008,36.353 163.774,37.070 C167.052,37.890 174.941,42.398 177.195,43.422 C178.937,44.344 190.514,56.126 191.641,69.650 C191.846,71.904 191.948,74.158 191.948,76.412 C191.948,96.390 176.068,109.914 156.705,109.914 ZM154.143,64.118 C147.484,64.118 143.386,69.548 143.386,74.875 C143.386,82.047 148.304,82.764 151.377,82.764 C155.680,82.764 160.598,81.842 162.852,77.949 C163.979,76.002 164.491,74.158 164.491,72.519 C164.491,67.396 159.573,64.118 154.143,64.118 ZM76.422,190.196 C70.275,190.196 64.333,189.479 63.411,189.376 C46.404,186.200 37.183,173.906 37.183,157.514 C37.388,146.039 39.642,134.257 47.736,125.549 C53.268,118.582 67.919,116.226 72.734,116.226 C76.525,116.226 80.725,116.636 83.491,117.353 C86.770,118.172 94.659,122.680 96.913,123.705 C98.654,124.627 110.231,136.409 111.358,149.932 C111.563,152.186 111.666,154.440 111.666,156.694 C111.666,176.672 95.786,190.196 76.422,190.196 ZM73.861,144.400 C67.202,144.400 63.104,149.830 63.104,155.157 C63.104,162.329 68.021,163.046 71.095,163.046 C75.398,163.046 80.315,162.124 82.569,158.231 C83.696,156.284 84.209,154.440 84.209,152.801 C84.209,147.678 79.291,144.400 73.861,144.400 ZM108.131,54.282 C108.131,55.922 108.234,57.151 108.439,57.971 C108.234,58.688 108.234,60.429 108.234,62.991 C108.234,70.162 108.746,83.276 108.746,93.624 C108.746,102.127 108.336,108.787 107.004,108.684 C104.648,108.582 102.291,106.840 100.242,105.816 C93.378,102.435 86.104,99.566 79.035,96.595 C74.220,94.648 69.712,91.985 64.897,89.936 C64.794,93.009 64.384,97.005 64.384,100.795 C64.384,103.152 64.589,105.406 65.101,107.352 C62.335,109.196 58.749,108.992 55.676,108.992 C50.656,108.992 45.636,109.606 40.615,109.606 C38.669,109.606 38.259,108.377 38.259,106.738 C38.259,104.484 38.669,103.767 38.669,98.337 C38.669,87.272 38.362,73.441 38.362,73.441 C38.362,67.191 38.566,52.438 38.566,43.730 C38.566,42.328 38.566,41.090 38.557,40.057 C39.274,39.325 40.007,38.611 40.746,37.901 C45.096,40.223 53.631,46.417 59.364,50.594 C65.306,54.999 71.966,61.659 79.342,63.810 C79.342,58.278 78.523,45.676 78.523,44.959 C78.523,44.019 77.898,22.969 77.691,15.366 C87.116,12.149 97.169,10.305 107.625,10.060 C107.637,10.462 107.643,10.890 107.643,11.349 C107.643,15.344 108.131,50.184 108.131,54.282 Z"/>
</svg>